<svg xmlns="http://www.w3.org/2000/svg" height="20" viewBox="0 96 960 960" width="20"><path d="M693.923 891.538 811.23 769.616l-26.538-24.538-92.056 95.153-38.328-39-25.538 25.154 65.153 65.153ZM303.386 474.615h353.228v-51.999H303.386v51.999Zm416.388 515.691q-71.696 0-121.735-50.264-50.038-50.264-50.038-121.96 0-71.697 50.265-121.735 50.264-50.038 121.96-50.038t121.735 50.264q50.038 50.265 50.038 121.961t-50.265 121.734q-50.264 50.038-121.96 50.038Zm-555.773-54.923V324.309q0-26.623 18.843-45.465 18.842-18.843 45.465-18.843h503.382q26.623 0 45.465 18.843 18.843 18.842 18.843 45.465v244.383q-12.385-4.307-25.225-6.576-12.84-2.27-26.774-3.5V324.309q0-4.616-3.846-8.463-3.847-3.846-8.463-3.846H228.309q-4.616 0-8.463 3.846-3.846 3.847-3.846 8.463V840h245.385q1.846 22.692 7.887 44.537 6.042 21.846 16.189 41.461l-9.692 6.692-48.692-31.537-52.923 34.23-52.923-34.23-52.922 34.23-52.923-34.23-51.385 34.23Zm139.385-205.999h169.692q4.615-15 11.769-27.307 7.153-12.308 15.846-24.692H303.386v51.999Zm0-127.385h268.231q16.768-10.23 32.729-18.652 15.96-8.423 34.19-16.346v-17h-335.15v51.998ZM216 840V312v528Z"/></svg>