<svg xmlns="http://www.w3.org/2000/svg" xmlns:xlink="http://www.w3.org/1999/xlink" width="40" zoomAndPan="magnify" viewBox="0 0 30 30.000001" height="40" preserveAspectRatio="xMidYMid meet" version="1.0"><defs><clipPath id="699fa6f434"><path d="M 11 10.640625 L 19 10.640625 L 19 18 L 11 18 Z M 11 10.640625 " clip-rule="nonzero"/></clipPath><clipPath id="b7392f5571"><path d="M 12 16 L 15 16 L 15 18.625 L 12 18.625 Z M 12 16 " clip-rule="nonzero"/></clipPath><clipPath id="dfcf783b04"><path d="M 18 13 L 22.914062 13 L 22.914062 18 L 18 18 Z M 18 13 " clip-rule="nonzero"/></clipPath><clipPath id="c3536285f5"><path d="M 20 14 L 22.914062 14 L 22.914062 17 L 20 17 Z M 20 14 " clip-rule="nonzero"/></clipPath><clipPath id="ec01d1d28d"><path d="M 19 16 L 22 16 L 22 18.625 L 19 18.625 Z M 19 16 " clip-rule="nonzero"/></clipPath><clipPath id="ec3f68059a"><path d="M 6.949219 13 L 11 13 L 11 14 L 6.949219 14 Z M 6.949219 13 " clip-rule="nonzero"/></clipPath></defs><g clip-path="url(#699fa6f434)"><path fill="#3d3d3d" d="M 18.425781 17.484375 L 14.347656 17.484375 L 14.324219 17.402344 C 14.28125 17.238281 14.191406 17.109375 14.0625 17.003906 C 13.933594 16.902344 13.785156 16.851562 13.625 16.851562 C 13.460938 16.851562 13.3125 16.902344 13.183594 17.003906 C 13.054688 17.109375 12.964844 17.238281 12.921875 17.402344 L 12.898438 17.484375 L 11.628906 17.484375 C 11.472656 17.484375 11.339844 17.429688 11.230469 17.3125 C 11.121094 17.199219 11.066406 17.0625 11.066406 16.902344 L 11.066406 15.589844 C 11.074219 15.519531 11.109375 15.484375 11.175781 15.484375 C 11.242188 15.484375 11.277344 15.519531 11.285156 15.589844 L 11.285156 16.902344 C 11.285156 17 11.320312 17.085938 11.386719 17.15625 C 11.453125 17.226562 11.535156 17.257812 11.628906 17.257812 L 12.738281 17.257812 C 12.808594 17.070312 12.925781 16.917969 13.085938 16.804688 C 13.25 16.6875 13.425781 16.628906 13.621094 16.628906 C 13.820312 16.628906 13.996094 16.6875 14.160156 16.804688 C 14.320312 16.917969 14.4375 17.070312 14.507812 17.257812 L 18.425781 17.257812 C 18.523438 17.257812 18.605469 17.226562 18.671875 17.15625 C 18.738281 17.085938 18.773438 17 18.773438 16.902344 L 18.773438 11.285156 C 18.773438 11.179688 18.734375 11.085938 18.660156 11.007812 C 18.589844 10.933594 18.5 10.894531 18.394531 10.894531 L 11.667969 10.894531 C 11.5625 10.894531 11.472656 10.933594 11.398438 11.007812 C 11.324219 11.085938 11.289062 11.179688 11.289062 11.285156 L 11.289062 12.308594 C 11.28125 12.378906 11.246094 12.414062 11.179688 12.414062 C 11.113281 12.414062 11.074219 12.378906 11.070312 12.308594 L 11.070312 11.285156 C 11.070312 11.117188 11.128906 10.96875 11.246094 10.847656 C 11.359375 10.726562 11.5 10.667969 11.667969 10.667969 L 18.394531 10.667969 C 18.558594 10.667969 18.699219 10.730469 18.816406 10.847656 C 18.933594 10.96875 18.992188 11.117188 18.992188 11.285156 L 18.992188 16.902344 C 18.992188 17.0625 18.9375 17.199219 18.824219 17.3125 C 18.714844 17.429688 18.582031 17.484375 18.425781 17.484375 Z M 18.425781 17.484375 " fill-opacity="1" fill-rule="nonzero"/></g><g clip-path="url(#b7392f5571)"><path fill="#3d3d3d" d="M 13.625 18.59375 C 13.378906 18.59375 13.164062 18.511719 12.984375 18.339844 C 12.800781 18.167969 12.699219 17.953125 12.675781 17.703125 C 12.652344 17.449219 12.714844 17.21875 12.863281 17.015625 C 13.011719 16.8125 13.207031 16.6875 13.445312 16.640625 C 13.6875 16.59375 13.914062 16.636719 14.121094 16.769531 C 14.328125 16.90625 14.46875 17.09375 14.535156 17.339844 C 14.558594 17.429688 14.570312 17.519531 14.570312 17.609375 C 14.570312 17.738281 14.546875 17.867188 14.5 17.984375 C 14.449219 18.105469 14.382812 18.214844 14.292969 18.304688 C 14.203125 18.398438 14.101562 18.46875 13.984375 18.519531 C 13.871094 18.570312 13.75 18.59375 13.625 18.59375 Z M 13.625 16.851562 C 13.460938 16.851562 13.3125 16.90625 13.183594 17.007812 C 13.054688 17.109375 12.96875 17.242188 12.921875 17.402344 C 12.902344 17.472656 12.894531 17.539062 12.894531 17.609375 C 12.902344 17.816406 12.972656 17.988281 13.117188 18.128906 C 13.257812 18.273438 13.425781 18.34375 13.621094 18.34375 C 13.820312 18.34375 13.988281 18.273438 14.128906 18.128906 C 14.273438 17.988281 14.34375 17.816406 14.351562 17.609375 C 14.351562 17.539062 14.34375 17.472656 14.324219 17.402344 C 14.28125 17.242188 14.191406 17.109375 14.0625 17.007812 C 13.933594 16.90625 13.785156 16.851562 13.625 16.851562 Z M 13.625 16.851562 " fill-opacity="1" fill-rule="nonzero"/></g><g clip-path="url(#dfcf783b04)"><path fill="#3d3d3d" d="M 22.40625 17.484375 L 21.578125 17.484375 L 21.554688 17.402344 C 21.511719 17.238281 21.425781 17.109375 21.292969 17.003906 C 21.164062 16.902344 21.015625 16.851562 20.855469 16.851562 C 20.691406 16.851562 20.542969 16.902344 20.414062 17.003906 C 20.285156 17.109375 20.199219 17.238281 20.152344 17.402344 L 20.128906 17.484375 L 19.300781 17.484375 C 19.164062 17.484375 19.042969 17.433594 18.945312 17.332031 C 18.847656 17.230469 18.796875 17.105469 18.796875 16.960938 L 18.796875 13.980469 C 18.796875 13.769531 18.871094 13.585938 19.015625 13.4375 C 19.160156 13.285156 19.335938 13.210938 19.539062 13.210938 L 21.25 13.210938 C 21.503906 13.210938 21.691406 13.328125 21.808594 13.5625 L 22.914062 15.753906 L 22.914062 16.960938 C 22.910156 17.105469 22.863281 17.230469 22.765625 17.332031 C 22.664062 17.433594 22.546875 17.484375 22.40625 17.484375 Z M 21.738281 17.257812 L 22.40625 17.257812 C 22.484375 17.257812 22.554688 17.230469 22.609375 17.171875 C 22.664062 17.113281 22.695312 17.042969 22.695312 16.960938 L 22.695312 15.808594 L 21.613281 13.667969 C 21.539062 13.511719 21.414062 13.4375 21.25 13.4375 L 19.539062 13.4375 C 19.394531 13.4375 19.273438 13.488281 19.167969 13.597656 C 19.066406 13.703125 19.015625 13.832031 19.015625 13.980469 L 19.015625 16.960938 C 19.015625 17.042969 19.042969 17.113281 19.097656 17.171875 C 19.15625 17.230469 19.222656 17.257812 19.300781 17.257812 L 19.96875 17.257812 C 20.039062 17.070312 20.15625 16.917969 20.316406 16.800781 C 20.480469 16.6875 20.660156 16.628906 20.855469 16.628906 C 21.050781 16.628906 21.230469 16.6875 21.390625 16.800781 C 21.550781 16.917969 21.667969 17.070312 21.738281 17.257812 Z M 21.738281 17.257812 " fill-opacity="1" fill-rule="nonzero"/></g><g clip-path="url(#c3536285f5)"><path fill="#3d3d3d" d="M 22.804688 16.042969 L 20.746094 16.042969 L 20.746094 14.277344 L 22.101562 14.277344 L 22.101562 14.503906 L 20.964844 14.503906 L 20.964844 15.816406 L 22.804688 15.816406 Z M 22.804688 16.042969 " fill-opacity="1" fill-rule="nonzero"/></g><g clip-path="url(#ec01d1d28d)"><path fill="#3d3d3d" d="M 20.855469 18.59375 C 20.609375 18.59375 20.394531 18.507812 20.214844 18.339844 C 20.03125 18.167969 19.929688 17.953125 19.910156 17.699219 C 19.886719 17.445312 19.949219 17.21875 20.097656 17.015625 C 20.242188 16.8125 20.4375 16.6875 20.679688 16.640625 C 20.921875 16.59375 21.144531 16.636719 21.351562 16.769531 C 21.5625 16.90625 21.699219 17.09375 21.765625 17.339844 C 21.789062 17.429688 21.800781 17.519531 21.800781 17.609375 C 21.800781 17.738281 21.777344 17.867188 21.730469 17.984375 C 21.683594 18.105469 21.613281 18.214844 21.523438 18.304688 C 21.4375 18.398438 21.332031 18.46875 21.21875 18.519531 C 21.101562 18.570312 20.980469 18.59375 20.855469 18.59375 Z M 20.855469 16.851562 C 20.691406 16.851562 20.546875 16.90625 20.414062 17.007812 C 20.285156 17.109375 20.199219 17.242188 20.152344 17.402344 C 20.132812 17.472656 20.125 17.539062 20.125 17.609375 C 20.132812 17.816406 20.207031 17.988281 20.347656 18.128906 C 20.488281 18.273438 20.65625 18.34375 20.855469 18.34375 C 21.050781 18.34375 21.21875 18.273438 21.363281 18.128906 C 21.503906 17.988281 21.578125 17.816406 21.585938 17.609375 C 21.585938 17.539062 21.574219 17.472656 21.554688 17.402344 C 21.511719 17.242188 21.421875 17.109375 21.292969 17.007812 C 21.164062 16.90625 21.015625 16.851562 20.855469 16.851562 Z M 20.855469 16.851562 " fill-opacity="1" fill-rule="nonzero"/></g><path fill="#3d3d3d" d="M 12.546875 13.417969 L 13.515625 13.417969 L 13.515625 13.605469 L 12.761719 13.605469 L 12.761719 14.191406 L 13.398438 14.191406 L 13.398438 14.378906 L 12.761719 14.378906 L 12.761719 15.160156 L 12.546875 15.160156 Z M 12.546875 13.417969 " fill-opacity="1" fill-rule="nonzero"/><path fill="#3d3d3d" d="M 13.808594 13.417969 L 14.332031 13.417969 C 14.679688 13.417969 14.921875 13.546875 14.921875 13.90625 C 14.921875 14.257812 14.675781 14.421875 14.332031 14.421875 L 14.023438 14.421875 L 14.023438 15.160156 L 13.808594 15.160156 Z M 14.304688 14.242188 C 14.5625 14.242188 14.707031 14.132812 14.707031 13.90625 C 14.707031 13.683594 14.5625 13.597656 14.304688 13.597656 L 14.023438 13.597656 L 14.023438 14.242188 Z M 14.292969 14.363281 L 14.457031 14.246094 L 14.96875 15.160156 L 14.730469 15.160156 Z M 14.292969 14.363281 " fill-opacity="1" fill-rule="nonzero"/><path fill="#3d3d3d" d="M 15.261719 13.417969 L 16.222656 13.417969 L 16.222656 13.605469 L 15.472656 13.605469 L 15.472656 14.152344 L 16.105469 14.152344 L 16.105469 14.339844 L 15.472656 14.339844 L 15.472656 14.972656 L 16.246094 14.972656 L 16.246094 15.160156 L 15.261719 15.160156 Z M 15.261719 13.417969 " fill-opacity="1" fill-rule="nonzero"/><path fill="#3d3d3d" d="M 16.605469 13.417969 L 17.574219 13.417969 L 17.574219 13.605469 L 16.820312 13.605469 L 16.820312 14.152344 L 17.457031 14.152344 L 17.457031 14.339844 L 16.820312 14.339844 L 16.820312 14.972656 L 17.597656 14.972656 L 17.597656 15.160156 L 16.605469 15.160156 Z M 16.605469 13.417969 " fill-opacity="1" fill-rule="nonzero"/><g clip-path="url(#ec3f68059a)"><path fill="#3d3d3d" d="M 6.980469 13.242188 L 10.78125 13.242188 C 10.804688 13.242188 10.816406 13.253906 10.816406 13.277344 L 10.816406 13.398438 C 10.816406 13.421875 10.804688 13.429688 10.78125 13.429688 L 6.980469 13.429688 C 6.960938 13.429688 6.949219 13.421875 6.949219 13.398438 L 6.949219 13.277344 C 6.949219 13.253906 6.960938 13.242188 6.980469 13.242188 Z M 6.980469 13.242188 " fill-opacity="1" fill-rule="nonzero"/></g><path fill="#3d3d3d" d="M 12.097656 15.589844 L 17.976562 15.589844 C 18 15.589844 18.011719 15.601562 18.011719 15.621094 L 18.011719 15.714844 C 18.011719 15.738281 18 15.75 17.976562 15.75 L 12.097656 15.75 C 12.074219 15.75 12.0625 15.738281 12.0625 15.714844 L 12.0625 15.621094 C 12.0625 15.601562 12.074219 15.589844 12.097656 15.589844 Z M 12.097656 15.589844 " fill-opacity="1" fill-rule="nonzero"/><path fill="#3d3d3d" d="M 8.367188 14.023438 L 10.78125 14.023438 C 10.804688 14.023438 10.816406 14.035156 10.816406 14.058594 L 10.816406 14.179688 C 10.816406 14.199219 10.804688 14.210938 10.78125 14.210938 L 8.367188 14.210938 C 8.347656 14.210938 8.335938 14.199219 8.335938 14.179688 L 8.335938 14.058594 C 8.335938 14.035156 8.347656 14.023438 8.367188 14.023438 Z M 8.367188 14.023438 " fill-opacity="1" fill-rule="nonzero"/><path fill="#3d3d3d" d="M 7.886719 14.804688 L 10.78125 14.804688 C 10.804688 14.804688 10.816406 14.816406 10.816406 14.835938 L 10.816406 14.957031 C 10.816406 14.980469 10.804688 14.992188 10.78125 14.992188 L 7.886719 14.992188 C 7.867188 14.992188 7.855469 14.980469 7.855469 14.957031 L 7.855469 14.835938 C 7.855469 14.816406 7.867188 14.804688 7.886719 14.804688 Z M 7.886719 14.804688 " fill-opacity="1" fill-rule="nonzero"/></svg>