<svg xmlns="http://www.w3.org/2000/svg" xmlns:xlink="http://www.w3.org/1999/xlink" width="40" zoomAndPan="magnify" viewBox="0 0 30 30.000001" height="40" preserveAspectRatio="xMidYMid meet" version="1.0"><defs><clipPath id="0f0874273c"><path d="M 9.195312 8.710938 L 20.804688 8.710938 L 20.804688 20.324219 L 9.195312 20.324219 Z M 9.195312 8.710938 " clip-rule="nonzero"/></clipPath></defs><g clip-path="url(#0f0874273c)"><path fill="#3d3d3d" d="M 15 9.050781 C 14.261719 9.050781 13.546875 9.195312 12.875 9.480469 C 12.222656 9.757812 11.636719 10.152344 11.136719 10.652344 C 10.632812 11.15625 10.242188 11.738281 9.964844 12.390625 C 9.679688 13.0625 9.535156 13.777344 9.535156 14.515625 C 9.535156 15.253906 9.679688 15.96875 9.964844 16.644531 C 10.242188 17.292969 10.632812 17.878906 11.136719 18.382812 C 11.636719 18.882812 12.222656 19.277344 12.875 19.550781 C 13.546875 19.835938 14.261719 19.980469 15 19.980469 C 15.738281 19.980469 16.453125 19.835938 17.128906 19.550781 C 17.777344 19.277344 18.363281 18.882812 18.863281 18.382812 C 19.367188 17.878906 19.761719 17.292969 20.035156 16.644531 C 20.320312 15.96875 20.464844 15.253906 20.464844 14.515625 C 20.464844 13.777344 20.320312 13.0625 20.035156 12.390625 C 19.761719 11.738281 19.367188 11.15625 18.863281 10.652344 C 18.363281 10.152344 17.777344 9.757812 17.128906 9.480469 C 16.453125 9.195312 15.738281 9.050781 15 9.050781 Z M 15 20.324219 C 14.21875 20.324219 13.457031 20.171875 12.742188 19.867188 C 12.046875 19.574219 11.425781 19.15625 10.894531 18.625 C 10.359375 18.089844 9.941406 17.46875 9.648438 16.777344 C 9.347656 16.0625 9.195312 15.300781 9.195312 14.515625 C 9.195312 13.734375 9.347656 12.972656 9.648438 12.257812 C 9.941406 11.566406 10.359375 10.945312 10.894531 10.410156 C 11.425781 9.878906 12.046875 9.457031 12.742188 9.167969 C 13.457031 8.863281 14.21875 8.710938 15 8.710938 C 15.785156 8.710938 16.546875 8.863281 17.261719 9.167969 C 17.953125 9.457031 18.574219 9.878906 19.105469 10.410156 C 19.640625 10.945312 20.058594 11.566406 20.351562 12.257812 C 20.65625 12.972656 20.808594 13.734375 20.808594 14.515625 C 20.808594 15.300781 20.65625 16.0625 20.351562 16.777344 C 20.058594 17.46875 19.640625 18.089844 19.105469 18.625 C 18.574219 19.15625 17.953125 19.574219 17.261719 19.867188 C 16.546875 20.171875 15.785156 20.324219 15 20.324219 " fill-opacity="1" fill-rule="nonzero"/></g><path fill="#3d3d3d" d="M 15 10.339844 C 13.886719 10.339844 12.835938 10.773438 12.046875 11.5625 C 11.257812 12.351562 10.824219 13.402344 10.824219 14.515625 C 10.824219 15.632812 11.257812 16.683594 12.046875 17.472656 C 12.835938 18.261719 13.886719 18.695312 15 18.695312 C 16.117188 18.695312 17.164062 18.261719 17.953125 17.472656 C 18.742188 16.683594 19.179688 15.632812 19.179688 14.515625 C 19.179688 13.402344 18.742188 12.351562 17.953125 11.5625 C 17.164062 10.773438 16.117188 10.339844 15 10.339844 Z M 15 19.035156 C 14.390625 19.035156 13.796875 18.917969 13.242188 18.679688 C 12.703125 18.453125 12.21875 18.128906 11.804688 17.710938 C 11.390625 17.296875 11.0625 16.816406 10.835938 16.277344 C 10.601562 15.71875 10.480469 15.128906 10.480469 14.515625 C 10.480469 13.90625 10.601562 13.316406 10.835938 12.757812 C 11.0625 12.21875 11.390625 11.734375 11.804688 11.320312 C 12.21875 10.90625 12.703125 10.578125 13.242188 10.351562 C 13.796875 10.117188 14.390625 9.996094 15 9.996094 C 15.609375 9.996094 16.203125 10.117188 16.761719 10.351562 C 17.296875 10.578125 17.78125 10.90625 18.195312 11.320312 C 18.613281 11.734375 18.9375 12.21875 19.164062 12.757812 C 19.402344 13.316406 19.519531 13.90625 19.519531 14.515625 C 19.519531 15.128906 19.402344 15.71875 19.164062 16.277344 C 18.9375 16.816406 18.613281 17.296875 18.195312 17.710938 C 17.78125 18.128906 17.296875 18.453125 16.761719 18.679688 C 16.203125 18.917969 15.609375 19.035156 15 19.035156 " fill-opacity="1" fill-rule="nonzero"/><path fill="#3d3d3d" d="M 14.804688 17.953125 L 14.804688 17.082031 C 14.359375 17.082031 13.851562 16.941406 13.542969 16.691406 L 13.726562 16.375 C 14.007812 16.601562 14.433594 16.757812 14.878906 16.757812 C 15.585938 16.757812 16.066406 16.328125 16.066406 15.769531 C 16.066406 15.230469 15.675781 14.90625 15.03125 14.640625 C 14.074219 14.25 13.644531 13.878906 13.644531 13.222656 C 13.644531 12.574219 14.125 12.066406 14.886719 11.96875 L 14.886719 11.082031 L 15.238281 11.082031 L 15.238281 11.96875 C 15.734375 11.984375 16.058594 12.132812 16.300781 12.292969 L 16.117188 12.609375 C 15.960938 12.5 15.617188 12.292969 15.078125 12.292969 C 14.308594 12.292969 14.023438 12.773438 14.023438 13.171875 C 14.023438 13.660156 14.339844 13.917969 15.136719 14.25 C 15.960938 14.601562 16.457031 14.988281 16.457031 15.746094 C 16.457031 16.292969 16.050781 16.949219 15.152344 17.082031 L 15.152344 17.953125 L 14.804688 17.953125 " fill-opacity="1" fill-rule="nonzero"/></svg>