<svg xmlns="http://www.w3.org/2000/svg" xmlns:xlink="http://www.w3.org/1999/xlink" width="40" zoomAndPan="magnify" viewBox="0 0 30 30.000001" height="40" preserveAspectRatio="xMidYMid meet" version="1.0"><defs><clipPath id="08a4ce0a74"><path d="M 7.980469 8.902344 L 21.769531 8.902344 L 21.769531 19.789062 L 7.980469 19.789062 Z M 7.980469 8.902344 " clip-rule="nonzero"/></clipPath><clipPath id="eaece75326"><path d="M 19 9 L 21.769531 9 L 21.769531 12 L 19 12 Z M 19 9 " clip-rule="nonzero"/></clipPath><clipPath id="b1cbad45b6"><path d="M 20 11 L 21.769531 11 L 21.769531 14 L 20 14 Z M 20 11 " clip-rule="nonzero"/></clipPath></defs><g clip-path="url(#08a4ce0a74)"><path fill="#3d3d3d" d="M 21.160156 8.902344 L 12.613281 8.902344 C 12.277344 8.902344 12.003906 9.171875 12.003906 9.503906 L 12.003906 11.648438 L 11.75 11.738281 C 11.738281 11.738281 11.726562 11.75 11.71875 11.753906 L 9.53125 13.460938 L 8.082031 13.980469 C 8.023438 14.003906 7.996094 14.0625 8.015625 14.121094 C 8.03125 14.164062 8.074219 14.191406 8.121094 14.191406 C 8.132812 14.191406 8.144531 14.191406 8.160156 14.1875 L 8.933594 13.910156 C 8.507812 14.375 8.335938 15.039062 8.535156 15.671875 C 8.554688 15.730469 8.617188 15.761719 8.675781 15.746094 C 8.734375 15.726562 8.765625 15.664062 8.746094 15.609375 C 8.484375 14.769531 8.957031 13.871094 9.804688 13.605469 L 14.070312 12.269531 L 14.089844 12.324219 C 14.292969 12.980469 13.925781 13.683594 13.265625 13.898438 L 11.992188 14.308594 C 11.945312 14.320312 11.914062 14.359375 11.914062 14.40625 L 11.90625 14.523438 C 11.867188 15.1875 11.59375 15.824219 11.128906 16.3125 C 11.089844 16.355469 11.089844 16.421875 11.136719 16.46875 C 11.15625 16.484375 11.1875 16.496094 11.210938 16.496094 C 11.242188 16.496094 11.269531 16.484375 11.292969 16.460938 C 11.78125 15.945312 12.078125 15.273438 12.125 14.570312 C 12.21875 14.695312 12.355469 14.777344 12.511719 14.804688 L 12.355469 14.859375 C 12.296875 14.882812 12.269531 14.941406 12.289062 15 C 12.308594 15.042969 12.347656 15.070312 12.394531 15.070312 C 12.410156 15.070312 12.421875 15.070312 12.433594 15.066406 L 13.140625 14.8125 L 14.066406 14.8125 L 14.117188 15.171875 C 14.125 15.226562 14.175781 15.265625 14.230469 15.265625 C 14.234375 15.265625 14.242188 15.265625 14.246094 15.265625 C 14.308594 15.257812 14.347656 15.203125 14.339844 15.140625 L 14.292969 14.8125 L 18.675781 14.8125 L 18.722656 14.824219 C 18.558594 15.316406 18.097656 15.648438 17.566406 15.648438 C 17.46875 15.648438 17.375 15.636719 17.285156 15.617188 L 15.417969 15.183594 C 15.394531 15.179688 15.375 15.179688 15.351562 15.1875 L 12.617188 16.164062 C 12.558594 16.1875 12.53125 16.25 12.550781 16.304688 C 12.566406 16.347656 12.609375 16.375 12.65625 16.375 C 12.671875 16.375 12.679688 16.375 12.695312 16.371094 L 14.21875 15.828125 L 14.335938 16.613281 C 14.34375 16.667969 14.390625 16.707031 14.445312 16.707031 C 14.453125 16.707031 14.457031 16.707031 14.460938 16.707031 C 14.523438 16.699219 14.566406 16.644531 14.558594 16.585938 L 14.488281 16.117188 L 15.335938 15.835938 L 17.976562 16.21875 C 17.910156 16.496094 17.746094 16.734375 17.519531 16.90625 C 17.257812 17.097656 16.933594 17.175781 16.609375 17.128906 L 15.46875 16.964844 C 15.449219 16.960938 15.433594 16.964844 15.417969 16.96875 L 8.070312 19.578125 C 8.011719 19.59375 7.980469 19.660156 8.003906 19.714844 C 8.019531 19.757812 8.0625 19.789062 8.109375 19.789062 C 8.121094 19.789062 8.132812 19.785156 8.148438 19.78125 L 15.457031 17.179688 L 16.570312 17.34375 C 16.949219 17.398438 17.332031 17.304688 17.640625 17.078125 C 17.949219 16.851562 18.148438 16.519531 18.207031 16.140625 C 18.214844 16.082031 18.171875 16.027344 18.113281 16.019531 L 15.332031 15.617188 C 15.316406 15.613281 15.296875 15.617188 15.28125 15.621094 L 14.445312 15.894531 L 14.421875 15.753906 L 15.390625 15.40625 L 17.226562 15.828125 C 17.335938 15.855469 17.449219 15.867188 17.558594 15.867188 C 18.21875 15.867188 18.78125 15.4375 18.949219 14.8125 L 21.160156 14.8125 C 21.496094 14.8125 21.769531 14.542969 21.769531 14.210938 L 21.769531 9.503906 C 21.769531 9.171875 21.496094 8.902344 21.160156 8.902344 Z M 11.84375 11.9375 L 12.003906 11.878906 L 12.003906 12.6875 L 10.132812 13.273438 Z M 14.222656 11.53125 L 14.003906 11.53125 L 14.003906 11.308594 L 14.222656 11.308594 Z M 13.78125 12.128906 L 13.558594 12.195312 L 13.558594 11.308594 L 13.78125 11.308594 Z M 13.335938 11.53125 L 13.113281 11.53125 L 13.113281 11.308594 L 13.335938 11.308594 Z M 13.113281 11.75 L 13.335938 11.75 L 13.335938 11.96875 L 13.113281 11.96875 Z M 13.113281 12.1875 L 13.335938 12.1875 L 13.335938 12.269531 L 13.113281 12.335938 Z M 14.109375 12.027344 L 14.003906 12.058594 L 14.003906 11.75 L 14.222656 11.75 L 14.222656 12.058594 C 14.214844 12.046875 14.203125 12.039062 14.195312 12.03125 C 14.164062 12.023438 14.136719 12.019531 14.109375 12.027344 Z M 21.550781 14.210938 C 21.550781 14.421875 21.375 14.59375 21.160156 14.59375 L 12.613281 14.59375 C 12.488281 14.59375 12.375 14.535156 12.300781 14.4375 L 13.332031 14.109375 C 13.503906 14.054688 13.65625 13.972656 13.789062 13.871094 C 13.804688 13.910156 13.84375 13.941406 13.890625 13.941406 C 13.953125 13.941406 14.003906 13.890625 14.003906 13.832031 L 14.003906 13.695312 C 14.003906 13.6875 14.003906 13.679688 14 13.667969 C 14.089844 13.566406 14.164062 13.449219 14.222656 13.328125 L 14.222656 13.828125 C 14.222656 13.890625 14.273438 13.9375 14.335938 13.9375 C 14.394531 13.9375 14.445312 13.890625 14.445312 13.828125 L 14.445312 13.171875 C 14.445312 13.113281 14.394531 13.0625 14.335938 13.0625 C 14.328125 13.0625 14.324219 13.0625 14.320312 13.066406 C 14.355469 12.921875 14.371094 12.773438 14.363281 12.621094 C 14.410156 12.609375 14.445312 12.566406 14.445312 12.515625 L 14.445312 11.203125 C 14.445312 11.144531 14.394531 11.09375 14.335938 11.09375 L 13.003906 11.09375 C 12.941406 11.09375 12.890625 11.144531 12.890625 11.203125 L 12.890625 12.410156 L 12.226562 12.617188 L 12.226562 9.503906 C 12.226562 9.292969 12.402344 9.121094 12.613281 9.121094 L 21.160156 9.121094 C 21.375 9.121094 21.550781 9.292969 21.550781 9.503906 Z M 21.550781 14.210938 " fill-opacity="1" fill-rule="nonzero"/></g><path fill="#3d3d3d" d="M 15.222656 13.0625 C 15.160156 13.0625 15.113281 13.113281 15.113281 13.171875 L 15.113281 13.828125 C 15.113281 13.890625 15.160156 13.9375 15.222656 13.9375 C 15.285156 13.9375 15.332031 13.890625 15.332031 13.828125 L 15.332031 13.171875 C 15.332031 13.113281 15.285156 13.0625 15.222656 13.0625 Z M 15.222656 13.0625 " fill-opacity="1" fill-rule="nonzero"/><path fill="#3d3d3d" d="M 15.667969 13.0625 C 15.605469 13.0625 15.554688 13.113281 15.554688 13.171875 L 15.554688 13.828125 C 15.554688 13.890625 15.605469 13.9375 15.667969 13.9375 C 15.726562 13.9375 15.777344 13.890625 15.777344 13.828125 L 15.777344 13.171875 C 15.777344 13.113281 15.726562 13.0625 15.667969 13.0625 Z M 15.667969 13.0625 " fill-opacity="1" fill-rule="nonzero"/><path fill="#3d3d3d" d="M 16.109375 13.0625 C 16.050781 13.0625 16 13.113281 16 13.171875 L 16 13.828125 C 16 13.890625 16.050781 13.9375 16.109375 13.9375 C 16.171875 13.9375 16.222656 13.890625 16.222656 13.828125 L 16.222656 13.171875 C 16.222656 13.113281 16.171875 13.0625 16.109375 13.0625 Z M 16.109375 13.0625 " fill-opacity="1" fill-rule="nonzero"/><path fill="#3d3d3d" d="M 16.554688 13.0625 C 16.492188 13.0625 16.445312 13.113281 16.445312 13.171875 L 16.445312 13.828125 C 16.445312 13.890625 16.492188 13.9375 16.554688 13.9375 C 16.617188 13.9375 16.664062 13.890625 16.664062 13.828125 L 16.664062 13.171875 C 16.664062 13.113281 16.617188 13.0625 16.554688 13.0625 Z M 16.554688 13.0625 " fill-opacity="1" fill-rule="nonzero"/><path fill="#3d3d3d" d="M 17 13.0625 C 16.9375 13.0625 16.886719 13.113281 16.886719 13.171875 L 16.886719 13.828125 C 16.886719 13.890625 16.9375 13.9375 17 13.9375 C 17.058594 13.9375 17.109375 13.890625 17.109375 13.828125 L 17.109375 13.171875 C 17.109375 13.113281 17.058594 13.0625 17 13.0625 Z M 17 13.0625 " fill-opacity="1" fill-rule="nonzero"/><path fill="#3d3d3d" d="M 17.886719 13.0625 C 17.824219 13.0625 17.777344 13.113281 17.777344 13.171875 L 17.777344 13.828125 C 17.777344 13.890625 17.824219 13.9375 17.886719 13.9375 C 17.949219 13.9375 17.996094 13.890625 17.996094 13.828125 L 17.996094 13.171875 C 17.996094 13.113281 17.949219 13.0625 17.886719 13.0625 Z M 17.886719 13.0625 " fill-opacity="1" fill-rule="nonzero"/><path fill="#3d3d3d" d="M 18.332031 13.0625 C 18.269531 13.0625 18.21875 13.113281 18.21875 13.171875 L 18.21875 13.828125 C 18.21875 13.890625 18.269531 13.9375 18.332031 13.9375 C 18.390625 13.9375 18.441406 13.890625 18.441406 13.828125 L 18.441406 13.171875 C 18.441406 13.113281 18.390625 13.0625 18.332031 13.0625 Z M 18.332031 13.0625 " fill-opacity="1" fill-rule="nonzero"/><path fill="#3d3d3d" d="M 18.773438 13.0625 C 18.714844 13.0625 18.664062 13.113281 18.664062 13.171875 L 18.664062 13.828125 C 18.664062 13.890625 18.714844 13.9375 18.773438 13.9375 C 18.835938 13.9375 18.886719 13.890625 18.886719 13.828125 L 18.886719 13.171875 C 18.886719 13.113281 18.835938 13.0625 18.773438 13.0625 Z M 18.773438 13.0625 " fill-opacity="1" fill-rule="nonzero"/><path fill="#3d3d3d" d="M 19.21875 13.0625 C 19.15625 13.0625 19.109375 13.113281 19.109375 13.171875 L 19.109375 13.828125 C 19.109375 13.890625 19.15625 13.9375 19.21875 13.9375 C 19.28125 13.9375 19.328125 13.890625 19.328125 13.828125 L 19.328125 13.171875 C 19.328125 13.113281 19.28125 13.0625 19.21875 13.0625 Z M 19.21875 13.0625 " fill-opacity="1" fill-rule="nonzero"/><g clip-path="url(#eaece75326)"><path fill="#3d3d3d" d="M 20.328125 9.558594 C 19.902344 9.558594 19.550781 9.902344 19.550781 10.324219 C 19.550781 10.746094 19.902344 11.089844 20.328125 11.089844 C 20.753906 11.089844 21.105469 10.746094 21.105469 10.324219 C 21.105469 9.902344 20.753906 9.558594 20.328125 9.558594 Z M 20.328125 10.871094 C 20.023438 10.871094 19.773438 10.625 19.773438 10.324219 C 19.773438 10.023438 20.023438 9.777344 20.328125 9.777344 C 20.632812 9.777344 20.882812 10.023438 20.882812 10.324219 C 20.882812 10.625 20.632812 10.871094 20.328125 10.871094 Z M 20.328125 10.871094 " fill-opacity="1" fill-rule="nonzero"/></g><path fill="#3d3d3d" d="M 15.222656 9.558594 L 13.003906 9.558594 C 12.941406 9.558594 12.890625 9.609375 12.890625 9.667969 L 12.890625 10.105469 C 12.890625 10.167969 12.941406 10.214844 13.003906 10.214844 L 15.222656 10.214844 C 15.285156 10.214844 15.332031 10.167969 15.332031 10.105469 L 15.332031 9.667969 C 15.332031 9.609375 15.285156 9.558594 15.222656 9.558594 Z M 15.113281 9.996094 L 13.113281 9.996094 L 13.113281 9.777344 L 15.113281 9.777344 Z M 15.113281 9.996094 " fill-opacity="1" fill-rule="nonzero"/><path fill="#3d3d3d" d="M 15.222656 10.433594 L 13.003906 10.433594 C 12.941406 10.433594 12.890625 10.484375 12.890625 10.542969 C 12.890625 10.605469 12.941406 10.652344 13.003906 10.652344 L 15.222656 10.652344 C 15.285156 10.652344 15.332031 10.605469 15.332031 10.542969 C 15.332031 10.484375 15.285156 10.433594 15.222656 10.433594 Z M 15.222656 10.433594 " fill-opacity="1" fill-rule="nonzero"/><g clip-path="url(#b1cbad45b6)"><path fill="#3d3d3d" d="M 20.59375 11.984375 C 20.546875 12.027344 20.546875 12.097656 20.59375 12.140625 C 20.78125 12.324219 20.882812 12.570312 20.882812 12.835938 C 20.882812 13.101562 20.78125 13.347656 20.59375 13.535156 C 20.546875 13.578125 20.546875 13.648438 20.59375 13.691406 C 20.613281 13.714844 20.640625 13.722656 20.667969 13.722656 C 20.699219 13.722656 20.726562 13.714844 20.746094 13.691406 C 20.976562 13.464844 21.105469 13.160156 21.105469 12.839844 C 21.105469 12.519531 20.976562 12.214844 20.746094 11.988281 C 20.703125 11.941406 20.632812 11.941406 20.59375 11.984375 Z M 20.59375 11.984375 " fill-opacity="1" fill-rule="nonzero"/></g><path fill="#3d3d3d" d="M 20.433594 12.292969 C 20.390625 12.25 20.320312 12.25 20.277344 12.292969 C 20.230469 12.335938 20.230469 12.40625 20.277344 12.449219 C 20.382812 12.554688 20.4375 12.691406 20.4375 12.835938 C 20.4375 12.980469 20.382812 13.121094 20.277344 13.222656 C 20.230469 13.265625 20.230469 13.332031 20.277344 13.375 C 20.296875 13.398438 20.324219 13.410156 20.351562 13.410156 C 20.382812 13.410156 20.410156 13.398438 20.429688 13.375 C 20.578125 13.230469 20.660156 13.039062 20.660156 12.835938 C 20.660156 12.632812 20.582031 12.4375 20.433594 12.292969 Z M 20.433594 12.292969 " fill-opacity="1" fill-rule="nonzero"/><path fill="#3d3d3d" d="M 19.960938 12.601562 C 19.917969 12.644531 19.917969 12.714844 19.960938 12.757812 C 19.984375 12.78125 19.996094 12.808594 19.996094 12.835938 C 19.996094 12.863281 19.984375 12.890625 19.960938 12.910156 C 19.917969 12.957031 19.921875 13.023438 19.960938 13.066406 C 19.984375 13.089844 20.011719 13.101562 20.039062 13.101562 C 20.066406 13.101562 20.097656 13.089844 20.117188 13.066406 C 20.179688 13.003906 20.214844 12.921875 20.214844 12.835938 C 20.214844 12.746094 20.179688 12.664062 20.117188 12.601562 C 20.074219 12.5625 20.007812 12.5625 19.960938 12.601562 Z M 19.960938 12.601562 " fill-opacity="1" fill-rule="nonzero"/></svg>