<svg xmlns="http://www.w3.org/2000/svg" xmlns:xlink="http://www.w3.org/1999/xlink" width="40" zoomAndPan="magnify" viewBox="0 0 30 30.000001" height="40" preserveAspectRatio="xMidYMid meet" version="1.0"><defs><clipPath id="7310e19318"><path d="M 9.195312 8.78125 L 20.804688 8.78125 L 20.804688 20.394531 L 9.195312 20.394531 Z M 9.195312 8.78125 " clip-rule="nonzero"/></clipPath></defs><g clip-path="url(#7310e19318)"><path fill="#3d3d3d" d="M 9.398438 17.46875 C 9.351562 18.808594 10.394531 20.199219 11.882812 20.285156 C 13.882812 20.394531 16.4375 20.363281 17.472656 20.320312 C 18.101562 20.292969 19.515625 20.148438 20.273438 19.09375 C 20.597656 18.636719 20.804688 18.011719 20.769531 17.148438 C 20.707031 15.636719 20.746094 14.097656 20.617188 12.589844 C 20.5625 11.945312 20.480469 11.289062 20.253906 10.683594 C 19.90625 9.746094 19.132812 9.285156 18.199219 9.078125 C 16.871094 8.78125 15.210938 9.003906 14.09375 8.996094 C 13.4375 8.992188 12.65625 8.9375 11.910156 9.011719 C 11.132812 9.085938 10.390625 9.304688 9.855469 9.832031 C 9.503906 10.171875 9.339844 10.609375 9.265625 11.078125 C 9.199219 11.519531 9.207031 11.988281 9.207031 12.417969 C 9.195312 14.359375 9.324219 15.53125 9.398438 17.46875 Z M 19.5625 10.171875 C 18.789062 9.882812 17.960938 9.757812 17.117188 9.71875 C 16.429688 9.691406 15.738281 9.722656 15.054688 9.777344 C 14.34375 9.832031 13.648438 9.910156 12.988281 9.980469 C 12.5625 10.023438 11.992188 10.011719 11.484375 10.117188 C 11.175781 10.179688 10.886719 10.289062 10.6875 10.503906 C 10.527344 10.675781 10.421875 10.890625 10.34375 11.117188 C 10.222656 11.488281 10.171875 11.894531 10.125 12.253906 C 10.082031 12.574219 10.066406 12.925781 10.066406 13.28125 C 10.0625 13.816406 10.09375 14.363281 10.109375 14.855469 L 10.136719 17.535156 C 10.152344 17.996094 10.15625 18.554688 10.308594 19.027344 C 10.328125 19.078125 10.34375 19.128906 10.367188 19.175781 C 10.746094 19.605469 11.277344 19.90625 11.898438 19.941406 C 13.890625 20.050781 16.429688 20.019531 17.460938 19.976562 C 18.027344 19.949219 19.316406 19.84375 19.996094 18.890625 C 20.285156 18.488281 20.460938 17.929688 20.429688 17.164062 C 20.367188 15.65625 20.40625 14.121094 20.277344 12.617188 C 20.226562 12.003906 20.148438 11.382812 19.9375 10.804688 C 19.84375 10.554688 19.71875 10.347656 19.5625 10.171875 Z M 17.414062 19.621094 C 17.808594 19.644531 18.167969 19.589844 18.492188 19.464844 C 18.734375 19.371094 18.949219 19.242188 19.144531 19.082031 C 19.34375 18.921875 19.515625 18.730469 19.664062 18.519531 C 19.757812 18.378906 19.839844 18.230469 19.910156 18.074219 C 20.078125 17.699219 20.175781 17.28125 20.214844 16.859375 C 20.269531 16.242188 20.183594 15.609375 19.980469 15.046875 C 20.089844 15.617188 20.0625 16.226562 19.933594 16.816406 C 19.851562 17.195312 19.714844 17.558594 19.542969 17.894531 C 19.457031 18.066406 19.363281 18.226562 19.261719 18.382812 C 19.152344 18.539062 19.042969 18.6875 18.914062 18.820312 C 18.757812 18.984375 18.585938 19.128906 18.390625 19.253906 C 18.105469 19.429688 17.785156 19.5625 17.414062 19.621094 Z M 19.53125 10.136719 C 19.175781 9.753906 18.679688 9.539062 18.125 9.414062 C 16.820312 9.125 15.1875 9.347656 14.089844 9.34375 C 13.445312 9.335938 12.675781 9.28125 11.941406 9.355469 C 11.242188 9.421875 10.574219 9.605469 10.089844 10.078125 C 9.796875 10.367188 9.664062 10.738281 9.601562 11.132812 C 9.535156 11.554688 9.546875 12.003906 9.546875 12.421875 C 9.535156 14.355469 9.664062 15.527344 9.738281 17.464844 C 9.738281 17.46875 9.738281 17.472656 9.738281 17.476562 C 9.71875 18.03125 9.910156 18.597656 10.261719 19.050781 L 10.257812 19.046875 C 10.078125 18.574219 10.046875 18.011719 10.003906 17.542969 C 9.980469 17.273438 9.964844 17.003906 9.949219 16.738281 C 9.917969 16.113281 9.898438 15.492188 9.851562 14.867188 C 9.816406 14.375 9.761719 13.824219 9.746094 13.285156 C 9.730469 12.914062 9.734375 12.546875 9.769531 12.210938 C 9.808594 11.824219 9.851562 11.390625 9.972656 10.996094 C 10.058594 10.707031 10.191406 10.441406 10.386719 10.222656 C 10.644531 9.945312 11.003906 9.785156 11.402344 9.707031 C 11.925781 9.601562 12.515625 9.628906 12.957031 9.589844 C 13.621094 9.542969 14.324219 9.484375 15.035156 9.464844 C 15.734375 9.441406 16.4375 9.453125 17.128906 9.527344 C 17.96875 9.617188 18.78125 9.800781 19.53125 10.136719 Z M 14.601562 12 C 14.59375 12 14.589844 12 14.582031 12 C 11.179688 12.265625 11.351562 17.421875 14.859375 17.53125 C 16.765625 17.589844 18.007812 16.042969 17.660156 14.152344 C 17.453125 13.035156 16.484375 12.035156 14.601562 12 Z M 14.601562 12.34375 C 16.265625 12.375 17.144531 13.226562 17.324219 14.214844 C 17.628906 15.875 16.542969 17.238281 14.871094 17.1875 C 11.800781 17.09375 11.628906 12.585938 14.601562 12.34375 Z M 14.726562 16.820312 C 14.949219 16.867188 15.171875 16.894531 15.398438 16.890625 C 15.636719 16.886719 15.867188 16.835938 16.089844 16.746094 C 16.269531 16.667969 16.429688 16.570312 16.570312 16.453125 C 16.671875 16.371094 16.761719 16.28125 16.835938 16.179688 C 17.027344 15.921875 17.152344 15.621094 17.203125 15.308594 C 17.246094 15.066406 17.246094 14.8125 17.199219 14.566406 C 17.132812 14.222656 16.988281 13.890625 16.753906 13.597656 C 17.027344 14.125 17.046875 14.707031 16.882812 15.230469 C 16.804688 15.480469 16.675781 15.710938 16.507812 15.917969 C 16.445312 16 16.378906 16.078125 16.304688 16.152344 C 16.195312 16.261719 16.078125 16.367188 15.9375 16.453125 C 15.761719 16.570312 15.574219 16.652344 15.371094 16.707031 C 15.160156 16.769531 14.945312 16.804688 14.726562 16.820312 Z M 18.042969 10.515625 C 17.773438 10.585938 17.617188 10.804688 17.578125 11.066406 C 17.511719 11.523438 18.007812 11.878906 18.414062 11.730469 C 18.65625 11.644531 18.789062 11.402344 18.796875 11.148438 C 18.804688 10.921875 18.710938 10.695312 18.535156 10.574219 C 18.414062 10.496094 18.25 10.457031 18.042969 10.515625 Z M 18.132812 10.847656 C 18.222656 10.820312 18.292969 10.828125 18.347656 10.863281 C 18.429688 10.917969 18.460938 11.03125 18.460938 11.136719 C 18.457031 11.25 18.410156 11.367188 18.300781 11.40625 C 18.117188 11.472656 17.886719 11.324219 17.914062 11.113281 C 17.933594 10.988281 18.003906 10.882812 18.132812 10.847656 Z M 18.132812 10.847656 " fill-opacity="1" fill-rule="evenodd"/></g></svg>