<svg xmlns="http://www.w3.org/2000/svg" xmlns:xlink="http://www.w3.org/1999/xlink" width="40" zoomAndPan="magnify" viewBox="0 0 30 30.000001" height="40" preserveAspectRatio="xMidYMid meet" version="1.0"><defs><clipPath id="a200e7df4a"><path d="M 9.195312 8.710938 L 20.804688 8.710938 L 20.804688 20.324219 L 9.195312 20.324219 Z M 9.195312 8.710938 " clip-rule="nonzero"/></clipPath></defs><g clip-path="url(#a200e7df4a)"><path fill="#3d3d3d" d="M 11.511719 8.710938 C 10.230469 8.710938 9.1875 9.75 9.1875 11.03125 L 9.1875 18 C 9.1875 19.28125 10.230469 20.324219 11.511719 20.324219 L 18.480469 20.324219 C 19.761719 20.324219 20.800781 19.28125 20.800781 18 L 20.800781 11.03125 C 20.800781 9.75 19.761719 8.710938 18.480469 8.710938 Z M 11.511719 9.066406 L 18.480469 9.066406 C 19.5625 9.066406 20.445312 9.949219 20.445312 11.03125 L 20.445312 18 C 20.445312 19.082031 19.5625 19.964844 18.480469 19.964844 L 11.511719 19.964844 C 10.429688 19.964844 9.546875 19.082031 9.546875 18 L 9.546875 11.03125 C 9.546875 9.949219 10.429688 9.066406 11.511719 9.066406 Z M 12.019531 9.601562 C 10.949219 9.601562 10.082031 10.472656 10.082031 11.539062 L 10.082031 17.492188 C 10.082031 18.5625 10.949219 19.429688 12.019531 19.429688 L 17.972656 19.429688 C 19.039062 19.429688 19.910156 18.5625 19.910156 17.492188 L 19.910156 14.160156 C 19.910156 14.109375 19.867188 14.070312 19.820312 14.070312 C 19.769531 14.070312 19.730469 14.109375 19.730469 14.160156 L 19.730469 17.492188 C 19.730469 18.460938 18.941406 19.25 17.972656 19.25 L 12.019531 19.25 C 11.050781 19.25 10.261719 18.460938 10.261719 17.492188 L 10.261719 11.539062 C 10.261719 10.570312 11.050781 9.78125 12.019531 9.78125 L 18.03125 9.78125 C 18.082031 9.78125 18.121094 9.742188 18.121094 9.691406 C 18.121094 9.644531 18.082031 9.601562 18.03125 9.601562 Z M 15.347656 11.566406 C 14.910156 11.570312 14.570312 11.6875 14.34375 11.917969 C 14.121094 12.136719 14.011719 12.445312 14.011719 12.832031 L 14.101562 12.84375 L 14.011719 12.84375 L 14.011719 13.535156 L 13.566406 13.535156 C 13.515625 13.535156 13.476562 13.574219 13.476562 13.621094 L 13.476562 14.515625 C 13.476562 14.566406 13.515625 14.605469 13.566406 14.605469 L 14.011719 14.605469 L 14.011719 17.375 C 14.011719 17.425781 14.054688 17.464844 14.101562 17.464844 L 15.351562 17.464844 C 15.402344 17.464844 15.441406 17.425781 15.441406 17.375 L 15.441406 14.605469 L 16.085938 14.605469 C 16.132812 14.605469 16.167969 14.574219 16.175781 14.53125 C 16.175781 14.527344 16.246094 14.09375 16.277344 13.628906 C 16.28125 13.605469 16.273438 13.582031 16.253906 13.5625 C 16.238281 13.542969 16.214844 13.535156 16.191406 13.535156 L 15.261719 13.535156 L 15.261719 12.960938 C 15.261719 12.917969 15.347656 12.820312 15.433594 12.820312 L 16.246094 12.820312 C 16.296875 12.820312 16.335938 12.777344 16.335938 12.730469 L 16.335938 11.65625 C 16.335938 11.609375 16.296875 11.566406 16.246094 11.566406 Z M 15.347656 11.746094 L 16.15625 11.746094 L 16.15625 12.640625 L 15.433594 12.640625 C 15.261719 12.640625 15.085938 12.804688 15.085938 12.960938 L 15.085938 13.621094 C 15.085938 13.671875 15.125 13.710938 15.175781 13.710938 L 16.09375 13.710938 C 16.066406 14.019531 16.03125 14.296875 16.011719 14.425781 L 15.351562 14.425781 C 15.304688 14.425781 15.261719 14.46875 15.261719 14.515625 L 15.261719 17.285156 L 14.191406 17.285156 L 14.191406 14.515625 C 14.191406 14.46875 14.152344 14.425781 14.101562 14.425781 L 13.65625 14.425781 L 13.65625 13.710938 L 14.101562 13.710938 C 14.152344 13.710938 14.191406 13.671875 14.191406 13.621094 L 14.191406 12.832031 C 14.191406 12.496094 14.285156 12.230469 14.46875 12.042969 C 14.664062 11.847656 14.960938 11.746094 15.347656 11.746094 Z M 19.820312 12.28125 C 19.769531 12.28125 19.730469 12.324219 19.730469 12.371094 L 19.730469 12.730469 C 19.730469 12.777344 19.769531 12.820312 19.820312 12.820312 C 19.867188 12.820312 19.910156 12.777344 19.910156 12.730469 L 19.910156 12.371094 C 19.910156 12.324219 19.867188 12.28125 19.820312 12.28125 Z M 19.820312 12.996094 C 19.769531 12.996094 19.730469 13.039062 19.730469 13.085938 L 19.730469 13.800781 C 19.730469 13.851562 19.769531 13.890625 19.820312 13.890625 C 19.867188 13.890625 19.910156 13.851562 19.910156 13.800781 L 19.910156 13.085938 C 19.910156 13.039062 19.867188 12.996094 19.820312 12.996094 Z M 19.820312 12.996094 " fill-opacity="1" fill-rule="nonzero"/></g></svg>