<svg xmlns="http://www.w3.org/2000/svg" xmlns:xlink="http://www.w3.org/1999/xlink" width="40" zoomAndPan="magnify" viewBox="0 0 30 30.000001" height="40" preserveAspectRatio="xMidYMid meet" version="1.0"><defs><clipPath id="620dabddc4"><path d="M 9.195312 8.710938 L 20.804688 8.710938 L 20.804688 20.324219 L 9.195312 20.324219 Z M 9.195312 8.710938 " clip-rule="nonzero"/></clipPath></defs><g clip-path="url(#620dabddc4)"><path fill="#3d3d3d" d="M 11.65625 8.710938 C 10.296875 8.710938 9.195312 9.816406 9.195312 11.171875 L 9.195312 17.859375 C 9.195312 19.21875 10.296875 20.324219 11.65625 20.324219 L 18.34375 20.324219 C 19.703125 20.324219 20.804688 19.21875 20.804688 17.859375 L 20.804688 11.171875 C 20.804688 9.816406 19.703125 8.710938 18.34375 8.710938 Z M 11.65625 9.0625 L 18.34375 9.0625 C 19.511719 9.0625 20.453125 10.003906 20.453125 11.171875 L 20.453125 17.859375 C 20.453125 19.027344 19.511719 19.96875 18.34375 19.96875 L 11.65625 19.96875 C 10.488281 19.96875 9.546875 19.027344 9.546875 17.859375 L 9.546875 11.171875 C 9.546875 10.003906 10.488281 9.0625 11.65625 9.0625 Z M 12.097656 9.589844 C 10.980469 9.589844 10.074219 10.496094 10.074219 11.613281 C 10.074219 11.671875 10.101562 11.703125 10.160156 11.703125 C 10.222656 11.703125 10.25 11.671875 10.25 11.613281 C 10.25 10.589844 11.074219 9.765625 12.097656 9.765625 L 12.625 9.765625 C 12.683594 9.765625 12.714844 9.738281 12.714844 9.675781 C 12.714844 9.617188 12.683594 9.589844 12.625 9.589844 Z M 14.910156 10.292969 C 14.851562 10.292969 14.824219 10.324219 14.824219 10.382812 L 14.824219 15.835938 C 14.824219 16.46875 14.3125 16.980469 13.679688 16.980469 C 13.558594 16.980469 13.445312 16.960938 13.335938 16.925781 C 13.167969 16.726562 13.066406 16.46875 13.066406 16.1875 C 13.066406 15.554688 13.578125 15.042969 14.207031 15.042969 C 14.261719 15.042969 14.316406 15.046875 14.371094 15.054688 C 14.4375 15.066406 14.472656 15.035156 14.472656 14.96875 L 14.472656 13.730469 C 14.472656 13.675781 14.445312 13.648438 14.390625 13.644531 C 14.332031 13.640625 14.269531 13.636719 14.207031 13.636719 C 14.117188 13.636719 14.03125 13.640625 13.945312 13.648438 L 13.945312 13.378906 C 13.945312 13.324219 13.917969 13.296875 13.863281 13.292969 C 13.800781 13.285156 13.742188 13.285156 13.679688 13.285156 C 12.273438 13.285156 11.128906 14.429688 11.128906 15.835938 C 11.128906 16.832031 11.707031 17.695312 12.542969 18.117188 C 12.992188 18.503906 13.570312 18.738281 14.207031 18.738281 C 15.613281 18.738281 16.757812 17.59375 16.757812 16.1875 L 16.757812 13.320312 C 17.453125 13.808594 18.238281 13.988281 18.78125 13.988281 C 18.839844 13.988281 18.871094 13.957031 18.871094 13.898438 L 18.871094 12.667969 C 18.871094 12.609375 18.839844 12.582031 18.78125 12.582031 C 18.765625 12.582031 18.585938 12.578125 18.34375 12.523438 L 18.34375 12.316406 C 18.34375 12.257812 18.3125 12.230469 18.253906 12.230469 C 18.226562 12.230469 17.8125 12.21875 17.371094 12.019531 C 17.082031 11.746094 16.839844 11.34375 16.765625 10.722656 C 16.757812 10.671875 16.726562 10.644531 16.675781 10.644531 L 16.285156 10.644531 C 16.265625 10.558594 16.25 10.46875 16.234375 10.371094 C 16.230469 10.320312 16.199219 10.292969 16.148438 10.292969 Z M 15 10.46875 L 16.082031 10.46875 C 16.089844 10.53125 16.101562 10.589844 16.113281 10.644531 L 15.441406 10.644531 C 15.382812 10.644531 15.351562 10.675781 15.351562 10.734375 L 15.351562 16.1875 C 15.351562 16.820312 14.839844 17.332031 14.207031 17.332031 C 13.980469 17.332031 13.769531 17.265625 13.59375 17.152344 C 13.621094 17.152344 13.652344 17.15625 13.679688 17.15625 C 14.40625 17.15625 15 16.5625 15 15.835938 Z M 15.527344 10.820312 L 16.15625 10.820312 C 16.359375 11.527344 16.796875 11.929688 17.222656 12.144531 C 17.246094 12.15625 17.269531 12.164062 17.292969 12.175781 C 17.4375 12.3125 17.59375 12.417969 17.75 12.496094 C 17.898438 12.570312 18.039062 12.621094 18.167969 12.660156 L 18.167969 13.445312 C 17.625 13.429688 16.851562 13.253906 16.199219 12.742188 C 16.167969 12.71875 16.136719 12.714844 16.105469 12.730469 C 16.070312 12.746094 16.054688 12.773438 16.054688 12.808594 L 16.054688 15.835938 C 16.054688 17.144531 14.992188 18.210938 13.679688 18.210938 C 13.308594 18.210938 12.957031 18.121094 12.640625 17.96875 C 12.148438 17.535156 11.832031 16.898438 11.832031 16.1875 C 11.832031 15.027344 12.667969 14.0625 13.769531 13.855469 L 13.769531 14.523438 C 13.738281 14.519531 13.710938 14.515625 13.679688 14.515625 C 12.953125 14.515625 12.359375 15.109375 12.359375 15.835938 C 12.359375 16.40625 12.726562 16.894531 13.238281 17.078125 C 13.476562 17.339844 13.824219 17.507812 14.207031 17.507812 C 14.933594 17.507812 15.527344 16.914062 15.527344 16.1875 Z M 16.332031 10.820312 L 16.609375 10.820312 C 16.667969 11.203125 16.789062 11.507812 16.945312 11.757812 C 16.691406 11.550781 16.460938 11.253906 16.332031 10.820312 Z M 17.882812 12.363281 C 18.007812 12.386719 18.113281 12.394531 18.167969 12.394531 L 18.167969 12.472656 C 18.074219 12.445312 17.980469 12.410156 17.882812 12.363281 Z M 18.34375 12.703125 C 18.503906 12.738281 18.628906 12.746094 18.695312 12.746094 L 18.695312 13.796875 C 18.359375 13.789062 17.929688 13.714844 17.496094 13.535156 C 17.773438 13.605469 18.035156 13.636719 18.253906 13.636719 C 18.3125 13.636719 18.34375 13.605469 18.34375 13.546875 Z M 16.230469 12.96875 C 16.347656 13.050781 16.464844 13.121094 16.582031 13.183594 L 16.582031 16.1875 C 16.582031 17.5 15.519531 18.5625 14.207031 18.5625 C 13.851562 18.5625 13.515625 18.484375 13.214844 18.34375 C 13.367188 18.371094 13.519531 18.386719 13.679688 18.386719 C 15.085938 18.386719 16.230469 17.242188 16.230469 15.835938 Z M 13.679688 13.460938 C 13.710938 13.460938 13.738281 13.460938 13.769531 13.464844 L 13.769531 13.675781 C 12.570312 13.886719 11.65625 14.933594 11.65625 16.1875 C 11.65625 16.703125 11.8125 17.179688 12.074219 17.582031 C 11.601562 17.148438 11.304688 16.527344 11.304688 15.835938 C 11.304688 14.523438 12.371094 13.460938 13.679688 13.460938 Z M 14.207031 13.8125 C 14.238281 13.8125 14.265625 13.816406 14.296875 13.816406 L 14.296875 14.875 C 14.265625 14.871094 14.238281 14.867188 14.207031 14.867188 C 13.480469 14.867188 12.886719 15.460938 12.886719 16.1875 C 12.886719 16.398438 12.941406 16.597656 13.027344 16.773438 C 12.730469 16.566406 12.535156 16.226562 12.535156 15.835938 C 12.535156 15.203125 13.050781 14.691406 13.679688 14.691406 C 13.734375 14.691406 13.789062 14.695312 13.84375 14.703125 C 13.910156 14.714844 13.945312 14.683594 13.945312 14.617188 L 13.945312 13.828125 C 14.03125 13.816406 14.117188 13.8125 14.207031 13.8125 Z M 19.835938 17.328125 C 19.777344 17.332031 19.75 17.359375 19.75 17.417969 C 19.75 17.476562 19.746094 17.53125 19.742188 17.585938 C 19.738281 17.644531 19.761719 17.675781 19.820312 17.683594 C 19.878906 17.6875 19.914062 17.660156 19.917969 17.601562 C 19.921875 17.542969 19.925781 17.480469 19.925781 17.417969 C 19.925781 17.359375 19.898438 17.328125 19.835938 17.328125 Z M 19.761719 17.859375 C 19.71875 17.859375 19.691406 17.882812 19.679688 17.921875 C 19.628906 18.105469 19.550781 18.273438 19.449219 18.425781 C 19.414062 18.476562 19.421875 18.519531 19.472656 18.550781 C 19.523438 18.585938 19.566406 18.578125 19.597656 18.523438 C 19.707031 18.355469 19.792969 18.167969 19.847656 17.972656 C 19.871094 17.894531 19.84375 17.855469 19.761719 17.859375 Z M 19.230469 18.738281 C 19.207031 18.738281 19.1875 18.746094 19.167969 18.761719 C 18.835938 19.074219 18.394531 19.265625 17.902344 19.265625 C 17.84375 19.265625 17.8125 19.296875 17.8125 19.355469 C 17.8125 19.414062 17.84375 19.445312 17.902344 19.441406 C 18.441406 19.441406 18.925781 19.230469 19.289062 18.890625 C 19.320312 18.863281 19.328125 18.832031 19.3125 18.792969 C 19.296875 18.757812 19.269531 18.738281 19.230469 18.738281 Z M 19.230469 18.738281 " fill-opacity="1" fill-rule="nonzero"/></g></svg>