<svg xmlns="http://www.w3.org/2000/svg" xmlns:xlink="http://www.w3.org/1999/xlink" width="40" zoomAndPan="magnify" viewBox="0 0 30 30.000001" height="40" preserveAspectRatio="xMidYMid meet" version="1.0"><path fill="#3d3d3d" d="M 14.941406 16.820312 C 15.402344 16.820312 15.824219 16.695312 16.210938 16.445312 C 16.597656 16.199219 16.886719 15.867188 17.082031 15.453125 L 12.800781 15.453125 C 12.996094 15.867188 13.289062 16.199219 13.675781 16.445312 C 14.058594 16.695312 14.484375 16.820312 14.941406 16.820312 Z M 12.871094 13.71875 L 13.40625 13.183594 L 13.945312 13.71875 L 14.226562 13.441406 L 13.40625 12.621094 L 12.59375 13.441406 Z M 15.941406 13.71875 L 16.480469 13.183594 L 17.011719 13.71875 L 17.300781 13.441406 L 16.480469 12.621094 L 15.660156 13.441406 Z M 14.945312 18.8125 C 14.339844 18.8125 13.773438 18.699219 13.246094 18.46875 C 12.714844 18.242188 12.253906 17.929688 11.863281 17.539062 C 11.46875 17.148438 11.160156 16.6875 10.929688 16.15625 C 10.703125 15.628906 10.585938 15.0625 10.585938 14.460938 C 10.585938 13.859375 10.703125 13.292969 10.929688 12.761719 C 11.160156 12.230469 11.46875 11.769531 11.859375 11.378906 C 12.253906 10.984375 12.714844 10.675781 13.242188 10.445312 C 13.773438 10.21875 14.339844 10.101562 14.941406 10.101562 C 15.542969 10.101562 16.109375 10.21875 16.640625 10.445312 C 17.167969 10.675781 17.628906 10.984375 18.023438 11.375 C 18.414062 11.769531 18.726562 12.230469 18.953125 12.757812 C 19.183594 13.289062 19.296875 13.855469 19.296875 14.457031 C 19.296875 15.058594 19.183594 15.625 18.953125 16.15625 C 18.726562 16.683594 18.414062 17.144531 18.023438 17.539062 C 17.632812 17.929688 17.171875 18.242188 16.640625 18.46875 C 16.113281 18.699219 15.546875 18.8125 14.945312 18.8125 Z M 14.941406 18.402344 C 16.042969 18.402344 16.976562 18.019531 17.742188 17.257812 C 18.503906 16.492188 18.886719 15.558594 18.886719 14.457031 C 18.886719 13.355469 18.503906 12.425781 17.742188 11.660156 C 16.976562 10.894531 16.042969 10.511719 14.941406 10.511719 C 13.839844 10.511719 12.910156 10.894531 12.144531 11.660156 C 11.378906 12.421875 10.996094 13.355469 10.996094 14.457031 C 10.996094 15.558594 11.378906 16.492188 12.144531 17.257812 C 12.90625 18.019531 13.839844 18.402344 14.941406 18.402344 Z M 14.941406 18.402344 " fill-opacity="1" fill-rule="nonzero"/></svg>