<svg xmlns="http://www.w3.org/2000/svg" xmlns:xlink="http://www.w3.org/1999/xlink" width="40" zoomAndPan="magnify" viewBox="0 0 30 30.000001" height="40" preserveAspectRatio="xMidYMid meet" version="1.0"><defs><clipPath id="25524fbe53"><path d="M 9.195312 8.710938 L 20.804688 8.710938 L 20.804688 20.324219 L 9.195312 20.324219 Z M 9.195312 8.710938 " clip-rule="nonzero"/></clipPath></defs><g clip-path="url(#25524fbe53)"><path fill="#3d3d3d" d="M 11.519531 8.703125 C 10.238281 8.703125 9.199219 9.742188 9.199219 11.023438 L 9.199219 17.992188 C 9.199219 19.273438 10.238281 20.3125 11.519531 20.3125 L 18.488281 20.3125 C 19.769531 20.3125 20.808594 19.273438 20.808594 17.992188 L 20.808594 11.023438 C 20.808594 9.742188 19.769531 8.703125 18.488281 8.703125 Z M 11.519531 9.058594 L 18.488281 9.058594 C 19.570312 9.058594 20.453125 9.941406 20.453125 11.023438 L 20.453125 17.992188 C 20.453125 19.074219 19.570312 19.957031 18.488281 19.957031 L 11.519531 19.957031 C 10.4375 19.957031 9.554688 19.074219 9.554688 17.992188 L 9.554688 11.023438 C 9.554688 9.941406 10.4375 9.058594 11.519531 9.058594 Z M 12.027344 9.59375 C 10.960938 9.59375 10.089844 10.464844 10.089844 11.53125 L 10.089844 17.484375 C 10.089844 18.550781 10.960938 19.421875 12.027344 19.421875 L 17.980469 19.421875 C 19.046875 19.421875 19.917969 18.550781 19.917969 17.484375 L 19.917969 14.152344 C 19.917969 14.101562 19.878906 14.0625 19.828125 14.0625 C 19.777344 14.0625 19.738281 14.101562 19.738281 14.152344 L 19.738281 17.484375 C 19.738281 18.453125 18.949219 19.242188 17.980469 19.242188 L 12.027344 19.242188 C 11.058594 19.242188 10.269531 18.453125 10.269531 17.484375 L 10.269531 11.53125 C 10.269531 10.5625 11.058594 9.773438 12.027344 9.773438 L 18.042969 9.773438 C 18.089844 9.773438 18.128906 9.734375 18.128906 9.683594 C 18.128906 9.632812 18.089844 9.59375 18.042969 9.59375 Z M 15.003906 12.246094 C 14.988281 12.246094 13.789062 12.246094 12.992188 12.308594 L 12.957031 12.3125 C 12.828125 12.328125 12.582031 12.351562 12.363281 12.59375 C 12.175781 12.800781 12.117188 13.230469 12.113281 13.25 C 12.113281 13.257812 12.054688 13.753906 12.054688 14.25 L 12.054688 14.710938 C 12.054688 15.203125 12.113281 15.703125 12.113281 15.710938 C 12.117188 15.726562 12.175781 16.160156 12.363281 16.363281 C 12.566406 16.589844 12.820312 16.621094 12.972656 16.640625 C 13 16.644531 13.023438 16.648438 13.050781 16.652344 C 13.507812 16.699219 14.941406 16.714844 15.003906 16.714844 C 15.015625 16.714844 16.21875 16.710938 17.015625 16.648438 L 17.050781 16.644531 C 17.183594 16.632812 17.425781 16.605469 17.644531 16.363281 C 17.832031 16.160156 17.890625 15.726562 17.894531 15.707031 C 17.894531 15.703125 17.953125 15.203125 17.953125 14.710938 L 17.953125 14.25 C 17.953125 13.753906 17.894531 13.257812 17.894531 13.25 C 17.890625 13.230469 17.832031 12.800781 17.644531 12.597656 C 17.425781 12.351562 17.179688 12.328125 17.050781 12.3125 L 17.011719 12.308594 C 16.21875 12.246094 15.015625 12.246094 15.003906 12.246094 Z M 19.828125 12.273438 C 19.777344 12.273438 19.738281 12.316406 19.738281 12.363281 L 19.738281 12.722656 C 19.738281 12.769531 19.777344 12.8125 19.828125 12.8125 C 19.878906 12.8125 19.917969 12.769531 19.917969 12.722656 L 19.917969 12.363281 C 19.917969 12.316406 19.878906 12.273438 19.828125 12.273438 Z M 15.003906 12.425781 C 15.015625 12.425781 16.210938 12.425781 16.996094 12.488281 L 17.03125 12.492188 C 17.144531 12.503906 17.339844 12.523438 17.511719 12.71875 C 17.636719 12.851562 17.703125 13.164062 17.714844 13.273438 C 17.71875 13.292969 17.773438 13.773438 17.773438 14.25 L 17.773438 14.710938 C 17.773438 15.191406 17.71875 15.683594 17.714844 15.6875 C 17.703125 15.796875 17.636719 16.109375 17.511719 16.242188 C 17.339844 16.4375 17.148438 16.457031 17.03125 16.46875 L 17 16.472656 C 16.210938 16.53125 15.015625 16.535156 15.003906 16.535156 C 14.988281 16.535156 13.515625 16.519531 13.078125 16.476562 C 13.054688 16.472656 13.027344 16.46875 12.992188 16.464844 C 12.859375 16.445312 12.65625 16.417969 12.496094 16.242188 C 12.371094 16.109375 12.304688 15.796875 12.292969 15.6875 C 12.289062 15.683594 12.234375 15.191406 12.234375 14.710938 L 12.234375 14.25 C 12.234375 13.765625 12.289062 13.277344 12.289062 13.273438 C 12.304688 13.164062 12.371094 12.851562 12.496094 12.714844 C 12.667969 12.523438 12.859375 12.503906 12.976562 12.492188 L 13.007812 12.488281 C 13.796875 12.425781 14.992188 12.425781 15.003906 12.425781 Z M 19.828125 12.988281 C 19.777344 12.988281 19.738281 13.03125 19.738281 13.078125 L 19.738281 13.792969 C 19.738281 13.84375 19.777344 13.882812 19.828125 13.882812 C 19.878906 13.882812 19.917969 13.84375 19.917969 13.792969 L 19.917969 13.078125 C 19.917969 13.027344 19.878906 12.988281 19.828125 12.988281 Z M 14.289062 13.292969 C 14.273438 13.292969 14.257812 13.296875 14.246094 13.304688 C 14.21875 13.320312 14.199219 13.347656 14.199219 13.382812 L 14.199219 15.523438 C 14.199219 15.558594 14.21875 15.585938 14.246094 15.601562 C 14.257812 15.609375 14.273438 15.613281 14.289062 15.613281 C 14.304688 15.613281 14.320312 15.609375 14.335938 15.601562 L 16.121094 14.53125 C 16.148438 14.511719 16.164062 14.484375 16.164062 14.453125 C 16.164062 14.421875 16.148438 14.394531 16.121094 14.375 L 14.335938 13.304688 C 14.320312 13.296875 14.304688 13.292969 14.289062 13.292969 Z M 14.378906 13.539062 L 15.902344 14.453125 L 14.378906 15.367188 Z M 14.378906 13.539062 " fill-opacity="1" fill-rule="nonzero"/></g></svg>