<svg xmlns="http://www.w3.org/2000/svg" xmlns:xlink="http://www.w3.org/1999/xlink" width="40" zoomAndPan="magnify" viewBox="0 0 30 30.000001" height="40" preserveAspectRatio="xMidYMid meet" version="1.0"><defs><clipPath id="4402971e54"><path d="M 9.195312 8.710938 L 20.804688 8.710938 L 20.804688 20.324219 L 9.195312 20.324219 Z M 9.195312 8.710938 " clip-rule="nonzero"/></clipPath></defs><path fill="#3d3d3d" d="M 14.832031 17.683594 C 13.070312 17.683594 12.335938 16.460938 12.304688 16.410156 C 12.25 16.3125 12.25 16.191406 12.304688 16.089844 C 12.363281 15.992188 12.46875 15.929688 12.582031 15.929688 C 12.996094 15.929688 13.300781 15.847656 13.4375 15.695312 C 13.441406 15.691406 13.441406 15.6875 13.445312 15.683594 C 12.824219 15.433594 12.386719 15.03125 12.148438 14.492188 C 11.613281 13.292969 12.265625 11.859375 12.292969 11.800781 C 12.335938 11.703125 12.429688 11.632812 12.535156 11.617188 C 12.640625 11.601562 12.746094 11.640625 12.820312 11.722656 C 12.832031 11.734375 13.914062 12.941406 15.007812 13.136719 C 15.046875 12.90625 15.144531 12.609375 15.375 12.371094 C 15.621094 12.113281 15.949219 11.984375 16.355469 11.984375 C 17.277344 11.984375 17.554688 12.425781 17.703125 12.660156 C 17.710938 12.671875 17.71875 12.683594 17.722656 12.695312 L 18.414062 12.695312 C 18.527344 12.695312 18.628906 12.753906 18.6875 12.847656 C 18.746094 12.945312 18.746094 13.066406 18.691406 13.164062 L 18.171875 14.121094 C 18.238281 15.105469 17.90625 16.945312 16.148438 17.472656 C 15.691406 17.613281 15.246094 17.683594 14.832031 17.683594 Z M 13.226562 16.496094 C 13.539062 16.757812 14.058594 17.046875 14.832031 17.046875 C 15.183594 17.046875 15.566406 16.984375 15.964844 16.863281 C 17.738281 16.328125 17.53125 14.109375 17.527344 14.085938 C 17.523438 14.023438 17.535156 13.957031 17.566406 13.902344 L 17.878906 13.332031 L 17.636719 13.332031 C 17.375 13.332031 17.242188 13.125 17.167969 13 C 17.054688 12.824219 16.925781 12.621094 16.355469 12.621094 C 16.125 12.621094 15.957031 12.683594 15.835938 12.808594 C 15.605469 13.046875 15.613281 13.460938 15.613281 13.464844 C 15.617188 13.554688 15.585938 13.636719 15.527344 13.699219 C 15.464844 13.761719 15.382812 13.796875 15.296875 13.796875 C 14.257812 13.796875 13.238281 13.003906 12.710938 12.515625 C 12.585938 12.957031 12.46875 13.652344 12.730469 14.234375 C 12.929688 14.679688 13.332031 15 13.925781 15.179688 C 14.046875 15.21875 14.132812 15.324219 14.148438 15.449219 C 14.152344 15.484375 14.179688 15.816406 13.910156 16.117188 C 13.75 16.300781 13.519531 16.425781 13.226562 16.496094 Z M 13.226562 16.496094 " fill-opacity="1" fill-rule="nonzero"/><g clip-path="url(#4402971e54)"><path fill="#3d3d3d" d="M 15 20.304688 C 11.800781 20.304688 9.195312 17.703125 9.195312 14.503906 C 9.195312 11.304688 11.800781 8.699219 15 8.699219 C 18.199219 8.699219 20.804688 11.304688 20.804688 14.503906 C 20.804688 15.976562 20.25 17.382812 19.242188 18.464844 C 19.121094 18.589844 18.917969 18.597656 18.792969 18.480469 C 18.664062 18.359375 18.65625 18.15625 18.777344 18.027344 C 19.671875 17.070312 20.167969 15.816406 20.167969 14.503906 C 20.167969 11.652344 17.847656 9.335938 15 9.335938 C 12.152344 9.335938 9.832031 11.652344 9.832031 14.503906 C 9.832031 17.351562 12.152344 19.667969 15 19.667969 C 15.878906 19.667969 16.75 19.445312 17.515625 19.015625 C 17.667969 18.933594 17.863281 18.988281 17.949219 19.140625 C 18.035156 19.292969 17.980469 19.488281 17.824219 19.574219 C 16.964844 20.050781 15.988281 20.304688 15 20.304688 Z M 15 20.304688 " fill-opacity="1" fill-rule="nonzero"/></g></svg>