<svg xmlns="http://www.w3.org/2000/svg" xmlns:xlink="http://www.w3.org/1999/xlink" width="40" zoomAndPan="magnify" viewBox="0 0 30 30.000001" height="40" preserveAspectRatio="xMidYMid meet" version="1.0"><defs><clipPath id="df5c6e33d6"><path d="M 14 10.507812 L 22.589844 10.507812 L 22.589844 18.492188 L 14 18.492188 Z M 14 10.507812 " clip-rule="nonzero"/></clipPath><clipPath id="83143642a1"><path d="M 7.347656 14 L 14 14 L 14 15 L 7.347656 15 Z M 7.347656 14 " clip-rule="nonzero"/></clipPath></defs><g clip-path="url(#df5c6e33d6)"><path fill="#3d3d3d" d="M 18.597656 11.234375 C 16.792969 11.234375 15.332031 12.695312 15.332031 14.5 C 15.332031 16.304688 16.792969 17.765625 18.597656 17.765625 C 20.398438 17.765625 21.859375 16.304688 21.859375 14.5 C 21.859375 12.695312 20.398438 11.234375 18.597656 11.234375 Z M 14.609375 14.5 C 14.609375 12.296875 16.394531 10.507812 18.597656 10.507812 C 20.800781 10.507812 22.585938 12.296875 22.585938 14.5 C 22.585938 16.707031 20.800781 18.492188 18.597656 18.492188 C 16.394531 18.492188 14.609375 16.707031 14.609375 14.5 Z M 14.609375 14.5 " fill-opacity="1" fill-rule="evenodd"/></g><path fill="#3d3d3d" d="M 18.597656 12.6875 C 18.796875 12.6875 18.957031 12.847656 18.957031 13.050781 L 18.957031 14.351562 L 19.578125 14.96875 C 19.71875 15.113281 19.71875 15.339844 19.578125 15.484375 C 19.4375 15.625 19.207031 15.625 19.066406 15.484375 L 18.339844 14.757812 C 18.273438 14.691406 18.234375 14.597656 18.234375 14.5 L 18.234375 13.050781 C 18.234375 12.847656 18.394531 12.6875 18.597656 12.6875 Z M 18.597656 12.6875 " fill-opacity="1" fill-rule="evenodd"/><path fill="#3d3d3d" d="M 9.53125 11.597656 C 9.53125 11.398438 9.695312 11.234375 9.894531 11.234375 L 12.792969 11.234375 C 12.996094 11.234375 13.15625 11.398438 13.15625 11.597656 C 13.15625 11.796875 12.996094 11.960938 12.792969 11.960938 L 9.894531 11.960938 C 9.695312 11.960938 9.53125 11.796875 9.53125 11.597656 Z M 9.53125 11.597656 " fill-opacity="1" fill-rule="evenodd"/><g clip-path="url(#83143642a1)"><path fill="#3d3d3d" d="M 7.355469 14.5 C 7.355469 14.300781 7.519531 14.136719 7.71875 14.136719 L 12.792969 14.136719 C 12.996094 14.136719 13.15625 14.300781 13.15625 14.5 C 13.15625 14.703125 12.996094 14.863281 12.792969 14.863281 L 7.71875 14.863281 C 7.519531 14.863281 7.355469 14.703125 7.355469 14.5 Z M 7.355469 14.5 " fill-opacity="1" fill-rule="evenodd"/></g><path fill="#3d3d3d" d="M 10.980469 17.402344 C 10.980469 17.203125 11.144531 17.042969 11.34375 17.042969 L 12.792969 17.042969 C 12.996094 17.042969 13.15625 17.203125 13.15625 17.402344 C 13.15625 17.605469 12.996094 17.765625 12.792969 17.765625 L 11.34375 17.765625 C 11.144531 17.765625 10.980469 17.605469 10.980469 17.402344 Z M 10.980469 17.402344 " fill-opacity="1" fill-rule="evenodd"/></svg>