<svg xmlns="http://www.w3.org/2000/svg" xmlns:xlink="http://www.w3.org/1999/xlink" width="40" zoomAndPan="magnify" viewBox="0 0 30 30.000001" height="40" preserveAspectRatio="xMidYMid meet" version="1.0"><defs><clipPath id="8cc8e20313"><path d="M 6.679688 18 L 19 18 L 19 22.292969 L 6.679688 22.292969 Z M 6.679688 18 " clip-rule="nonzero"/></clipPath><clipPath id="a67451afd6"><path d="M 16 9 L 23.316406 9 L 23.316406 15 L 16 15 Z M 16 9 " clip-rule="nonzero"/></clipPath><clipPath id="d8fc709512"><path d="M 7 7.050781 L 19 7.050781 L 19 15 L 7 15 Z M 7 7.050781 " clip-rule="nonzero"/></clipPath></defs><g clip-path="url(#8cc8e20313)"><path fill="#3d3d3d" d="M 6.691406 20.050781 L 7.421875 22.292969 C 8.226562 21.867188 9.375 21.652344 10.832031 21.652344 C 12.527344 21.652344 13.097656 21.867188 13.488281 21.867188 C 13.984375 21.867188 14.21875 21.679688 14.21875 21.679688 C 14.582031 21.359375 17.292969 19.917969 18.464844 19.300781 C 18.699219 19.195312 18.960938 19.007812 18.804688 18.796875 C 18.648438 18.582031 18.464844 18.554688 18.28125 18.636719 L 14.976562 19.757812 C 14.792969 20.664062 13.644531 20.609375 12.785156 20.53125 C 12.628906 20.503906 12.527344 20.371094 12.550781 20.238281 C 12.578125 20.101562 12.683594 19.96875 12.839844 19.996094 C 13.332031 20.050781 14.480469 20.128906 14.453125 19.597656 C 14.453125 19.328125 14.167969 19.222656 13.90625 19.222656 C 11.980469 19.140625 10.183594 18.636719 10.078125 18.609375 C 9.554688 18.421875 9.035156 18.582031 8.59375 18.902344 C 8.070312 19.300781 7.421875 19.675781 6.691406 20.050781 Z M 6.691406 20.050781 " fill-opacity="1" fill-rule="nonzero"/></g><path fill="#3d3d3d" d="M 17.789062 13.5625 L 18.492188 14.445312 C 18.59375 14.578125 18.804688 14.605469 18.960938 14.496094 C 19.117188 14.390625 19.117188 14.175781 19.011719 14.015625 L 18.515625 13.402344 Z M 17.789062 13.5625 " fill-opacity="1" fill-rule="nonzero"/><g clip-path="url(#a67451afd6)"><path fill="#3d3d3d" d="M 17.371094 12.734375 C 19.691406 12.761719 19.949219 12.574219 20.316406 13.191406 C 20.652344 13.75 21.566406 14.097656 22.191406 14.097656 C 22.605469 14.097656 22.996094 13.992188 23.363281 13.75 L 23.363281 10.839844 C 22.972656 10.8125 22.292969 10.734375 21.667969 10.441406 C 21.253906 10.28125 19.613281 8.972656 18.699219 9.347656 C 18.699219 9.371094 19.089844 11.269531 19.0625 11.160156 C 19.324219 11.132812 19.402344 11 19.429688 11 C 19.636719 10.707031 20.082031 11 19.871094 11.292969 C 19.847656 11.347656 19.585938 11.722656 18.90625 11.722656 C 18.882812 11.722656 18.882812 11.722656 18.855469 11.722656 L 17.371094 11.722656 C 17.085938 11.722656 16.875 11.960938 16.875 12.230469 C 16.875 12.523438 17.109375 12.734375 17.371094 12.734375 Z M 17.371094 12.734375 " fill-opacity="1" fill-rule="nonzero"/></g><path fill="#3d3d3d" d="M 17.1875 13.695312 L 16.460938 13.855469 L 17.789062 15.511719 C 17.890625 15.644531 18.101562 15.671875 18.257812 15.566406 C 18.386719 15.457031 18.414062 15.21875 18.308594 15.085938 Z M 17.1875 13.695312 " fill-opacity="1" fill-rule="nonzero"/><path fill="#3d3d3d" d="M 15.183594 14.125 L 15.105469 14.710938 C 15.078125 14.898438 15.210938 15.058594 15.390625 15.085938 C 15.574219 15.113281 15.730469 14.976562 15.757812 14.792969 L 15.859375 13.992188 Z M 15.183594 14.125 " fill-opacity="1" fill-rule="nonzero"/><path fill="#3d3d3d" d="M 12.136719 11.1875 C 12.238281 11.613281 12.65625 11.933594 13.097656 11.828125 C 13.542969 11.722656 13.828125 11.292969 13.722656 10.839844 C 13.621094 10.386719 13.175781 10.09375 12.761719 10.199219 C 12.34375 10.308594 12.058594 10.734375 12.136719 11.1875 Z M 12.136719 11.1875 " fill-opacity="1" fill-rule="nonzero"/><path fill="#3d3d3d" d="M 9.53125 9.90625 L 15.835938 8.546875 C 16.015625 8.945312 16.433594 9.238281 16.875 9.238281 L 17.265625 11.160156 C 16.773438 11.214844 16.382812 11.640625 16.355469 12.175781 L 10.261719 13.484375 C 10.078125 13.082031 9.660156 12.789062 9.21875 12.789062 L 8.851562 10.972656 C 9.242188 10.789062 9.53125 10.386719 9.53125 9.90625 Z M 11.613281 11.320312 C 11.769531 12.042969 12.449219 12.550781 13.203125 12.390625 C 13.566406 12.308594 13.855469 12.09375 14.0625 11.800781 C 14.269531 11.480469 14.324219 11.132812 14.246094 10.761719 C 14.089844 10.039062 13.410156 9.53125 12.628906 9.691406 C 11.925781 9.828125 11.457031 10.574219 11.613281 11.320312 Z M 11.613281 11.320312 " fill-opacity="1" fill-rule="nonzero"/><g clip-path="url(#d8fc709512)"><path fill="#3d3d3d" d="M 7.316406 9.71875 L 8.304688 14.578125 C 8.359375 14.816406 8.59375 14.976562 8.851562 14.925781 C 17.683594 13.003906 15.859375 13.402344 16.929688 13.164062 C 16.71875 13.054688 16.539062 12.894531 16.433594 12.683594 L 10.105469 14.042969 C 10 14.070312 9.816406 13.992188 9.789062 13.832031 C 9.710938 13.484375 9.375 13.242188 9.035156 13.324219 C 8.878906 13.351562 8.75 13.242188 8.722656 13.109375 L 8.253906 10.8125 C 8.226562 10.652344 8.304688 10.519531 8.460938 10.492188 C 8.800781 10.414062 9.035156 10.066406 8.957031 9.71875 C 8.929688 9.585938 9.007812 9.425781 9.164062 9.398438 L 15.9375 7.957031 C 16.09375 7.929688 16.226562 8.011719 16.25 8.171875 C 16.328125 8.546875 16.667969 8.757812 17.007812 8.679688 C 17.085938 8.652344 17.136719 8.679688 17.214844 8.707031 C 17.265625 8.757812 17.320312 8.8125 17.34375 8.890625 L 17.8125 11.160156 L 18.542969 11.160156 L 18.386719 10.441406 L 17.761719 7.449219 C 17.710938 7.210938 17.476562 7.050781 17.214844 7.105469 L 7.65625 9.1875 C 7.421875 9.238281 7.265625 9.480469 7.316406 9.71875 Z M 7.316406 9.71875 " fill-opacity="1" fill-rule="nonzero"/></g></svg>